<?xml version="1.0" encoding="UTF-8"?>
<svg version="1.1" viewBox="0 0 1600 1273" width="240" height="191" xmlns="http://www.w3.org/2000/svg">
<path transform="translate(1073,31)" d="m0 0 5 2 17 13 20 15 16 13 17 13 18 14 2 2-1 8-10 30-11 27-12 26-13 26-11 19-13 21-15 22-13 18-14 17-11 13-11 12-31 31-8 7-13 11-17 13-15 11-20 13-22 13-29 15-31 14-45 18-37 15-28 13-25 14-19 13-16 13-11 10-8 7-22 22-7 8-11 13-10 13-12 17-13 21-14 27-11 27-3 11-5-2-12-10-16-12-14-11-36-28-11-9-2-2 1-5 9-25 14-29 12-20 8-12 10-14 8-10 11-13 9-10 11-12 13-13 8-7 10-9 14-11 15-10 16-9 15-8 25-11 78-30 30-13 26-13 24-14 18-12 15-11 11-9 14-12 10-9 8-7 10-10h2l2-4 18-18 7-8 13-15 11-13 14-18 10-14 15-22 12-19 12-21 14-27 13-29 11-29 4-13 2-8z" fill="#FFD54D"/>
<path transform="translate(906,1)" d="m0 0 4 1 9 8 19 14 28 22 18 14 14 11 3 3-1 5-11 25-12 23-14 23-13 19-8 11-10 13-8 10-11 13-7 8-24 26-13 13-8 7-15 14-11 9-12 10-18 13-15 10-22 13-21 11-31 14-44 17-34 13-26 11-28 14-22 14-16 13-14 12-8 8-8 7-15 16-10 11-11 14-12 16-13 20-11 19-13 27-7 19-3 9-4-2-15-12-16-12-15-12-13-10-18-14-14-11 1-8 7-19 9-20 10-19 13-21 12-17 13-16 9-11 10-11 7-8 14-14 8-7 13-11 16-12 19-12 23-12 22-10 33-13 37-14 29-12 29-14 21-11 19-12 16-11 17-13 11-9 13-12 8-7 15-14 18-18 7-8 10-11 9-11 8-9 12-16 14-19 13-20 11-19 13-24 10-24z" fill="#E46246"/>
<path transform="translate(1140,289)" d="m0 0 5 1 8 7 12 9 36 28 14 11 17 13 4 5-15 23-10 14-16 21-11 13-12 14-12 13-15 15-8 7-10 9-9 7-13 10-17 12-19 12-17 10-28 15-35 16-39 16-37 15-24 11-24 12-18 11-17 12-17 14-26 24-14 15-9 10-11 14-10 13-15 23-12 21-11 23-8 21-3 9-4-2-16-13-12-9-14-11-13-10-14-11-13-10-9-8 1-6 10-27 9-19 12-21 16-24 12-16 11-13 7-8 9-10 12-13 10-9 11-10 10-8 15-11 18-11 16-9 32-14 39-15 34-13 30-13 25-12 23-13 24-16 19-14 15-13 11-9 7-7 8-7 10-9 34-34 1-2h2l2-4 10-11 11-14 10-13 10-16z" fill="#FFD54D"/>
<path transform="translate(159,974)" d="m0 0h65l4 1v23h58l19 3 15 5 16 8 12 9 12 12 10 15 7 15 5 15 3 14 2 17v30l-3 21-6 20-10 19-9 11-10 10-13 9-14 7-19 6-19 3-12 1h-44v25h-69v-25h-50l-17-2-17-4-15-6-15-8-15-13-11-14-9-17-8-22-2-8v-58l8-26 8-18 8-13 9-11 10-9 14-9 17-7 18-4 8-1h58v-23zm-32 74-16 3-12 6-10 9-6 7-8 16-4 17-1 17 2 21 5 16 6 12 11 12 11 7 14 5 11 2 12 1h15l1-1 1-54v-94l-1-2zm101 0v150l4 1 23-1 17-3 12-5 11-8 9-10 6-12 5-19 1-7v-23l-3-17-5-13-6-10-7-8-10-7-11-5-16-3z"/>
<path transform="translate(1277,998)" d="m0 0h73l13 3 9 5 8 7 7 11 5 10 17 50 28 84 2 2 6-16 16-49 22-66 8-18 7-9 8-7 10-5 8-2h76v250h-69l-1-2v-170l-4 9-21 64-32 96-3 3h-63l-3-5-9-25-24-72-14-43-8-23-2-4v171l-2 1h-67l-1-2z"/>
<path transform="translate(416,998)" d="m0 0h70l1 148 6-7 12-18 28-40 11-16 14-20 13-19 12-17 7-10 1-1h69l1 1v248l-2 1h-67l-1-2-1-145-28 40-12 17-13 19-12 17-11 16-24 34-4 4h-68l-1-1-1-104z"/>
<path transform="translate(642,279)" d="m0 0h3v2l3 1 2 4-1 3v10l-1 3 1 7-2 16v10l1 3-1 7 2 11v8l2 10 2 7 1 6-8 4-27 11-25 12-15 8-18 12-14 11-15 13-8 8-8 7-15 16-10 11-11 14-12 16-13 20-11 19-13 27-7 19-3 9-4-2-15-12-16-12-15-12-13-10-18-14-14-11 1-8 7-19 9-20 10-19 13-21 12-17 13-16 9-11 10-11 7-8 14-14 8-7 13-11 16-12 19-12 23-12 22-10 33-13 37-14 29-12z" fill="#8126C2"/>
<path transform="translate(1e3 998)" d="m0 0h158l17 3 16 6 11 7 9 9 9 14 6 15 4 15 2 15 1 20v145l-1 1h-165l-21-2-16-4-16-8-11-9-9-12-5-11-4-13-1-7v-18l4-17 7-14 7-9 4-5 12-9 15-7 20-4 116-1-2-19-4-13-5-7-10-6-11-3-10-1-127-1-1-2v-30zm75 150-12 1-8 4-5 6-3 8v12l5 10 7 6 8 3 9 1h92l1-4 1-46-1-1z" fill="#010000"/>
<path transform="translate(705,998)" d="m0 0h69v101l104-1 1-100h69l1 1v248l-2 1h-67l-1-1v-99h-105v100h-68l-1-2z"/>
<path transform="translate(838,524)" d="m0 0h8l2 2v14l-2-1v10l-1 13 3 24 3 11 2 9 5 5 8 1 2 1 3-1 2 7-1 4h-2l-1 3-19 11-16 11-10 8-11 9-26 24-14 15-9 10-11 14-10 13-15 23-12 21-11 23-8 21-3 9-4-2-16-13-12-9-14-11-13-10-14-11-13-10-9-8 1-6 10-27 9-19 12-21 16-24 12-16 11-13 7-8 9-10 12-13 10-9 11-10 10-8 15-11 18-11 16-9 32-14z" fill="#E46247"/>
<path transform="translate(639,443)" d="m0 0h5l3 5v17l-1 12v20l2 29 1 9 5 21 3 1v3h2v2l4 2 1 3-28 28-7 8-11 13-10 13-12 17-13 21-14 27-11 27-3 11-5-2-12-10-16-12-14-11-36-28-11-9-2-2 1-5 9-25 14-29 12-20 8-12 10-14 8-10 11-13 9-10 11-12 13-13 8-7 10-9 14-11 15-10 16-9z" fill="#9E34A3"/>
<path transform="translate(846,348)" d="m0 0 2 1 1 8-2 1-2 21 1 17 2 5v3h-2l6 17 4 9 7 9 5 1 5 4 5 3 2-1v7l-4 4-29 13-45 18-37 15-28 13-25 14-19 13-16 13-11 10h-3l-4-4v-2h-2v-3l-4-1-6-25v-9l-2-25v-26l1-13 1-10-2-1-1-4-3-1 27-12 78-30 30-13 26-13 24-14 17-11z" fill="#E46246"/>
<path transform="translate(979,216)" d="m0 0h6l2 3 2 8 1 27 2 9 11 22v2h-3l3 5 3-1 8 19v2h-3l5 10 7 7 5-1 4 5 2 6-4 6-28 28-8 7-13 11-17 13-15 11-20 13-22 13-27 14-2-1 1-1v-6l-2 1-1-2-5-3-6-4-1 3-9-12-4-9-5-13v-4h2l-3-8-1-17 2-22h3l-2-5-1-3-2-1 15-11 11-9 14-12 10-9 8-7 10-10h2l2-4 18-18 7-8 13-15 11-13 11-14z" fill="#F2A047"/>
<path transform="translate(906,1)" d="m0 0 4 1 9 8 19 14 28 22 18 14 14 11 3 3-1 5-11 25-12 23-14 23-13 19-8 11-10 13-8 10-11 13-7 8-24 26-10 10v-3-3l-3-2-3-1v-2l-5 1-7-13-1-4-1-14-2-12 3 1-3-9-2-7 2-2-1-4-5-6 1-3h2l-6-10-3-14-1-14 1-3-2-8-4-1h-3l10-12 14-19 18-27 11-19 13-24 10-24z" fill="#F2A047"/>
<path transform="translate(429,391)" d="m0 0 5 1 4 2 6 12 2 10h2l1 17-1 6v28l2 14-1 10 1 20-1 4 1 17 2 14h3l-1 6-9 15-11 22-9 23-4 12-4-2-15-12-16-12-15-12-13-10-18-14-14-11 1-8 7-19 9-20 10-19 13-21 12-17 13-16 9-11 8-9 8-7z" fill="#75299B"/>
<path transform="translate(986,452)" d="m0 0 6 1 3 3 3 13 1 21 1 4-1 4 2 6 3 1 5 16v2l-2 1 3 8-2 4 3-1 3 4 1 4v14l-1 4h-2l-1 3-29 13-57 23-30 13-24 12-1-2 2-2-1-7-5-1-9-1-5-6-4-16-3-20-1-12 1-11v-10l2 2v-13l-6-2 3-2 39-15 30-13 25-12 23-13 24-16z" fill="#F2A047"/>
<path transform="translate(705,602)" d="m0 0 4 2 1 8-2 13 1 27 1 15v29l1 6v18l1 1 1 32 4 16 3 9-10 19-9 21-5 15-2 5-4-2-16-13-12-9-14-11-13-10-14-11-13-10-9-8 1-6 10-27 9-19 12-21 16-24 12-16 11-13 7-8 9-10 12-11z" fill="#CE5268"/>
<path transform="translate(642,279)" d="m0 0h3v2l3 1 2 4-1 3v10l-1 3 1 7-2 16v10l1 3-1 7 2 11v8l2 10 2 7 1 6-8 4-27 11-25 12-15 8-15 10-4-1-6-5-6-12-3-11-3-52-3-13-2-4v-11l-2-1 27-11 30-11 39-16z" fill="#9E34A3"/>
<path transform="translate(528,534)" d="m0 0 4 2 3 7 5 21 2 20 2 44 1 19 1 44-1 19-4 8-5 1-15-12-13-10-36-28-11-9-2-2 1-5 9-25 14-29 12-20 8-12 10-14 8-10z" fill="#8126C2"/>
<path transform="translate(704,416)" d="m0 0 3 1 4 6 4 7v14l-1 2v26l1 4-1 5 2 1v15l-2 11 3 16-1 4-16 10-12 9-11 9-11 10h-3l-4-4v-2h-2v-3l-4-1-6-25v-9l-2-25v-26l1-13 1-10-2-1-1-4-3-1 27-12z" fill="#CE5268"/>
<path transform="translate(639,443)" d="m0 0h5l3 5v17l-1 12v20l2 29 1 9 5 21 3 1v3h2v2l4 2 1 3-28 28-7 8-11 13-5 7-9-4-4-5-3-3-2-10v-17l1-13v-5l3-1-2-5 1-10 1-3 1-23-3-19-2-8 1-5-5-10-3-7 13-10 21-13z" fill="#B14186"/>
<path transform="translate(698,248)" d="m0 0h5l3 5 4 18 1 4 1 18 2 10 1 3 1 8v13l-1 13-1 8 1 16-27 11-32 12h-2l-2-6v-6l-2-1-2-10-1-16-1-7 1-4-1-7 1-16 1-9-1-4 1-5v-9-3l-4-5 4-3 26-13 23-14z" fill="#CE5268"/>
<path transform="translate(832,126)" d="m0 0 4 2 3 9-1 2 1 14 3 14 5 8v2l-2 1 2 4 4 5-1 4-1 2 4 10v5h-2l2 11 1 14 4 10 3 5v2l5-1 1 2 4 1h3l-1 5-4 6-8 7-15 14-11 9-7 5-1-6h2l-2-5-10-9-3-6-2-14h-3l-4-13-3-6-2-8-7-14-1-9 1-19 3-14v-7l-2-1 14-15 9-11 12-13z" fill="#E68142"/>
<path transform="translate(383,443)" d="m0 0 5 1 5 10 2 6h2l1 8 2 42 1 18 1 31v15l1 13-4 2-3 5-5 2-9-1-16-13-16-12-14-11-10-8 1-8 7-19 9-20 10-19 13-21 12-17 2-3z" fill="#7C2A8A"/>
<path transform="translate(838,524)" d="m0 0h8l2 2v14l-2-1v10l-1 13 3 24 3 11 2 9 5 5 8 1 2 1 3-1 2 7-1 4h-2l-1 3-19 11-16 11-10 8-5 3 1-3v-7l-9-7-2-4-4-2-4-8v-9l-3-5-2-11v-8l-1-7 5-31 1-12-1-2-4-2 32-13z" fill="#E87843"/>
<path transform="translate(1010,169)" d="m0 0h4v2l4-2 2 13v19l1 15 5 10-2 7 7 14 5 9 5 12 3 9 1 6h2l3 5-1 4-1 2 5 5 2 10-2 11-11 12-7 8-3 2 1-4-4-8h-4l-4-2-8-9-2-7h3l-5-11-3-8-4-1-2-5h3l-4-8-9-19-1-6-1-27-3-10h-6l-2 1 2-4 10-14 15-22z" fill="#FEC54D"/>
<path transform="translate(642,279)" d="m0 0h3v2l3 1 2 4-1 3v10l-1 3 1 7-2 16v10l1 3-1 7 2 11v8l2 10 2 7 1 6-8 4-27 11-14 6-6-4-1-3-3-3-2-5-1-1-1-26 2-12 4-15 2-11 2-5v-6l-2-3-2-6-3-3v-6l30-12z" fill="#B14186"/>
<path transform="translate(846,348)" d="m0 0 2 1 1 8-2 1-2 21 1 17 2 5v3h-2l6 17 4 9 7 9 5 1 5 4 5 3 2-1v7l-4 4-29 13-20 8v-3l1-6-3-5v-2h-2v-2l-4-2-7-8-2-9h-2l-3-5-2 1-3-12-1-14 5-19 4-12-1-9 19-11 17-11z" fill="#E68142"/>
<path transform="translate(657,656)" d="m0 0h1v8l-2 6-2 10-1 8-1 7 3 8 1 7 3 8v38l-3 12v9l3 4v6l1 1 1 7v4l1 10-1 2-4-1-17-13-15-12-17-13-9-8 1-6 10-27 9-19 12-21 16-24 6-8z" fill="#BF4C76"/>
<path transform="translate(663,432)" d="m0 0 4 1 9 9 2 7 1 43v9l1 2v10l-1 8 1 17 4 12-15 13-3 3h-3l-4-4v-2h-2v-3l-4-1-6-25v-9l-2-25v-26l1-13 1-10-2-1-1-4-3-1z" fill="#BF4C76"/>
<path transform="translate(1010,436)" d="m0 0h6l6 12 2 12 1 11 9 23 4 10 3 7 2 9h-2l3 9v7l-4 13-14 8-14 6v-2h2v-18l-3-7h-3l1-5-3-8h3l-3-7-2-11-4-1-2-9 1-3-1-2-1-21-3-15-6-2 5-5 12-9z" fill="#FEC54D"/>
<path transform="translate(705,602)" d="m0 0 4 2 1 8-2 13 1 27 1 15v29l1 6v18l1 1 1 32 4 16 3 9-9 17-1-3-4-2-7-21-1-11-4-2-1-9-4-5v-62l-3-14-1-4v-8l-1-4v-7l2-7 2-2 5-10 1-3-1-7z" fill="#D85556"/>
<path transform="translate(666,267)" d="m0 0 4 2 3 3 2 7 1 5 3 7 1 19v31l-2 17-2 8 1 13-21 8h-2l-2-6v-6l-2-1-2-10-1-16-1-7 1-4-1-7 1-16 1-9-1-4 1-5v-9-3l-4-5 4-3z" fill="#BF4C76"/>
<path transform="translate(804,156)" d="m0 0 5 1v2h2l1 17h2l1 15 2 5 2-1 9 18 1 6-1 4 2 5 2 13v17l5 10 7 8 1 6-3 5-13 11-2-3v-3h2l-2-5-10-9-3-6-2-14h-3l-4-13-3-6-2-8-7-14-1-9 1-19 3-14v-7l-2-1z" fill="#E87843"/>
<path transform="translate(838,524)" d="m0 0h8l2 2v14l-2-1v10l-1 13 3 24 3 11 2 9 5 5 8 1 2 1 3-1 2 7-1 4h-2l-1 3-19 11-7 5h-2l-2-8-7-10-5-13v-10l-2-14-1-13v-16l1-17-3-7h-7l3-2z" fill="#E68142"/>
<path transform="translate(606,462)" d="m0 0 2 1v8l1 7v19l3 16 1 7v18l1 5v20l1 1 1 9 5 12v2h3l2 7 3 1 2 2-1 5-12 14-5 7-9-4-4-5-3-3-2-10v-17l1-13v-5l3-1-2-5 1-10 1-3 1-23-3-19-2-8 1-5-5-10-3-7 13-10z" fill="#AB3B8D"/>
<path transform="translate(665,644)" d="m0 0h2l2 4v23l2 8-1 6 4 12 1 5 1 15v18l1 6v12l-3 31-1 6-2 3-3 10-6 5-2-5 1-7-1-1-1-7-1-5-2-4-1-6 1-9 2-10v-36l-3-8-2-10-2-5 1-7 2-13 2-9 1-2v-7l-3 2 2-4z" fill="#C64E6E"/>
<path transform="translate(636,686)" d="m0 0 2 1 1 8v23l-1 11v6l2 6-1 15 1 10v12l1 6-1 5-3 3-5-1-12-10-12-9-9-8 1-6 10-27 9-19 12-21z" fill="#BB447D"/>
<path transform="translate(825,362)" d="m0 0 3 3v5h-2l-2 17-1 6v10l5 21-1 6 3 8 1 7 3 7 8 10-1 10-11 5-4 1 2-9-3-5v-2h-2v-2l-4-2-7-8-2-9h-2l-3-5-2 1-3-12-1-14 5-19 4-12-1-9 14-8z" fill="#E87843"/>
<path transform="translate(704,416)" d="m0 0 3 1 4 6 4 7v14l-1 2v26l1 4-1 5 2 1v15l-2 11 3 16-1 4-9 5-4-10-3-16-3-2v-2l-3-1-2-5-2-1v-37l-1-4 1-2-1-8 5-4 5-6-4-10-4-4z" fill="#D85556"/>
<path transform="translate(607,294)" d="m0 0 4 1 2 3 1 4-1 1 2 19-1 9v25l1 3v8l1 2-1 6 2 6v6h2l2 3v3h2l2 6-20 9-6-4-1-3-3-3-2-5-1-1-1-26 2-12 4-15 2-11 2-5v-6l-2-3-2-6-3-3v-6z" fill="#AB3B8D"/>
<path transform="translate(698,248)" d="m0 0h5l3 5 4 18 1 4 1 18 2 10 1 3 1 8v13l-1 13-1 8 1 16-9 4h-2l-2-12v-32l-2 2v-3h-3v-2l-4-2-2-3v-21l-2-18-2-9 1-4v-3l2-4-3-2z" fill="#D85556"/>
<path transform="translate(639,443)" d="m0 0h5l3 5v17l-1 12v20l2 29 1 9 5 21 3 1v3h2v2l4 2 1 3-17 17-3-4-3-6v-3h-2l-2-6-1-9-1-2-1-20h1l1-17v-11l1-7v-20h-2l-2-13h-3l-4-7v-4l-4-2 4-3z" fill="#BB447D"/>
<path transform="translate(663,432)" d="m0 0 4 1 9 9 2 7 1 43v9l1 2v10l-1 8 1 17 4 12-6 4-1-5-5-2-3-1-1-4-3-2-2-9v-64l-3-16h2l-1-3 2-4 2-6-1-4z" fill="#C64E6E"/>
<path transform="translate(642,279)" d="m0 0h3v2l3 1 2 4-1 3v10l-1 3 1 7-2 16v10l1 3-1 7 2 11v8l2 10 2 7 1 6-8 4-9 3-1-5-1-1-2-17v-10h1l1-22 1-5 1-11-2-19-2-5v-3h-2v-2l-3-1-3-6 15-7z" fill="#BB447D"/>
<path transform="translate(666,267)" d="m0 0 4 2 3 3 2 7 1 5 3 7 1 19v31l-2 17-2 8 1 13-3 1-2-4v-4l-3-1v-3l-3-1v-3l-3-1-1-4v-10l1-6-1-3v-7l1-9 1-15-1-12-2-6 1-7 3-7 2-4-5-4z" fill="#C64E6E"/>
<path transform="translate(609,734)" d="m0 0 2 1 2 5v-2l2 1-1 5 1 13-1 1v8h-2l-1 6h-3l-9-8 1-6z" fill="#B24286"/>
</svg>
