<?xml version="1.0" encoding="UTF-8"?>
<svg version="1.1" viewBox="0 0 2048 847" width="708" height="293" xmlns="http://www.w3.org/2000/svg">
    <path transform="translate(0)" d="m0 0h2048v847h-2048z" fill="#FEF8F1"/>
    <path transform="translate(553,276)" d="m0 0h71l11 1 7 4 5 7 1 3v519l-5 8-5 4-5 2h-92l-9-6-4-7-1-5v-514l4-8 7-6 3-1z" fill="#529D7F"/>
    <path transform="translate(363,422)" d="m0 0h85l8 3 7 7 2 5v372l-4 8-8 6-3 1h-92l-6-3-5-5-3-7v-373l3-6 7-6z" fill="#519C7E"/>
    <path transform="translate(649,20)" d="m0 0 6 1 7 6 3 7-2 20-14 111-2 18-3 9-4 3-7-1-10-9-11-10-8-7-12-11-4-4-4 2-7 8-8 7-30 30-8 7-16 15-14 12-13 12-11 9-17 14-14 11-15 12-38 28-23 16-23 15-22 14-24 14-21 12-34 18-28 13-31 14-36 14-29 10h-7l-7-6-4-10 1-7 5-5 62-31 23-13 28-16 28-17 26-17 31-21 19-13 13-10 14-10 26-20 10-8 14-11 14-12 11-9 14-12 10-9 8-7 13-12 8-7 12-11 23-23 8-7 10-10 7-8 4-3v-2l-8-7-17-16-12-11-8-7-3-4 1-5 4-3 36-10 62-17 44-12z" fill="#519C7E"/>
    <path transform="translate(185,518)" d="m0 0h79l9 3 7 8 1 3v279l-5 8-6 4-3 1h-94l-8-6-4-5-1-3v-278l3-6 6-5 5-2z" fill="#519C7E"/>
    <path transform="translate(1162,623)" d="m0 0h18l18 3 15 5 14 8 10 9 7 8 8 16 3 10 1 8v131l-1 1h-43v-28l-8 10-11 9-16 8-10 3-18 1-18-2-16-5-14-9-9-9-6-10-4-12v-22l4-13 6-10 9-8 10-6 12-5 18-5 25-4 41-4 4-1-1-11-4-12-5-7-11-7-14-3h-11l-12 3-10 6-8 9-5 12h-11l-29-2-1-1 1-11 4-13 8-12 10-10 13-8 12-5 17-4z" fill="#466363"/>
    <path transform="translate(1368,321)" d="m0 0h24l17 4 16 7 13 9 10 9 10 14 7 14 5 17 2 15v15l-1 9-1 1h-143l3 15 5 12 6 8 8 7 14 7 12 2h15l13-3 12-6 9-9 5-7 39 6 2 2-6 11-9 11-11 11-14 9-13 6-19 5-7 1h-20l-19-3-14-5-12-6-12-9-11-11-9-14-6-14-4-17-1-9v-25l3-17 6-17 7-13 8-10 6-7 13-10 12-7 18-6z" fill="#466363"/>
    <path transform="translate(1755,623)" d="m0 0h21l17 3 15 6 12 7 11 9 10 12 8 14 6 16 3 17v28l-1 1-9 1h-132l-2 1 4 17 6 12 9 10 10 6 10 4 5 1h20l12-3 11-6 6-5 6-8 3-3 30 5 10 1-1 5-9 14-11 12-8 7-14 8-11 5-16 4h-36l-17-4-16-7-12-8-12-11-8-11-8-16-4-13-3-20v-19l3-19 5-16 9-17 12-14 9-8 13-8 14-6z" fill="#466363"/>
    <path transform="translate(1497,556)" d="m0 0h44l1 1 1 148 11-13 12-13 12-14 11-12 10-11 7-8 6-7 56-1-2 4-12 12-7 8-13 13-7 8-10 10-7 8-15 15 1 4 12 17 13 18 10 14 26 36 10 14 9 12 1 3h-55l-10-13-12-17-13-18-12-17-14-20-4 2-14 14-1 69h-46v-265z" fill="#466363"/>
    <path transform="translate(992,323)" d="m0 0h22l13 3 16 8 11 9 9 12 7 15 3 11 1 8v131l-9 1h-33l-3-1-1-124-3-12-6-9-8-7-9-4-5-1h-16l-10 3-9 5-8 8-5 8-4 12-1 5-1 105-1 11-8 1h-31l-6-1-1-2 1-192h44l1 5v25l7-9 10-10 13-8 15-5z" fill="#466363"/>
    <path transform="translate(1575,320)" d="m0 0 19 1 21 5 16 8 10 8 8 9 6 12 3 9v5l-7 2-31 5h-5l-4-10-7-9-10-6-7-2h-20l-11 4-7 6-3 7v8l4 6 9 6 21 6 33 8 17 6 12 6 10 9 6 7 5 12 1 5v18l-3 12-6 11-9 10-14 9-16 6-20 4h-32l-16-3-14-5-13-7-10-8-7-8-6-10-4-13 3-2 37-8h5l8 15 8 7 8 4 8 2h21l12-4 8-6 4-8v-10l-4-6-5-4-12-5-50-11-17-6-11-6-9-8-5-8-3-9-1-5v-16l4-15 6-11 6-7 12-9 12-6 17-5z" fill="#466363"/>
    <path transform="translate(1376,623)" d="m0 0h13l15 2 17 5 15 8 10 8 9 9 8 13 5 13 1 6-1 1-41 5h-4l-5-13-9-10-8-5-7-2-16-1-11 2-9 4-8 6-8 9-6 13-4 17v21l3 16 5 12 6 10 9 8 8 4 6 2 16 1 12-2 11-6 8-8 9-18 42 4 4 1-2 9-8 16-7 10-7 8-10 8-19 10-13 4-15 2h-24l-14-2-15-5-14-8-10-8-7-7-10-15-5-11-4-13-3-16v-29l3-18 6-16 7-13 8-10 9-9 14-9 15-7 15-4z" fill="#466363"/>
    <path transform="translate(1083,326)" d="m0 0h49l4 10 22 62 18 50 5 14 2-3 23-63 11-30 14-37 2-3h47l-1 5-13 33-17 43-22 56-13 33-9 22-3 3h-40l-4-4-22-55-14-36-32-80-7-18z" fill="#466363"/>
    <path transform="translate(871,576)" d="m0 0h3l1 51h45v36l-7 1h-39l1 99 3 10 7 8 9 3h17l10-2 1 2-1 36-9 3h-34l-14-3-9-4-9-6-7-7-7-14-2-9-1-10v-106h-37v-36l10-1h27v-43l5-2z" fill="#466363"/>
    <path transform="translate(1759,274)" d="m0 0h4v52h46l1 5-1 30-7 1h-39l1 99 2 9 5 7 8 4 3 1h15l13-2v36l-3 3-10 2h-29l-16-3-14-7-8-7-7-11-4-14-1-7-1-110h-36l-1-1v-35h38v-44l4-2z" fill="#466363"/>
    <path transform="translate(1041,626)" d="m0 0h20l6 2v45l-11-3-8-1h-11l-13 4-9 6-7 8-5 11-3 12-1 9-1 103h-46v-194l1-1h44v27l-1 8 3-3 6-11 9-10 9-6 9-4z" fill="#466363"/>
    <path transform="translate(1976,625)" d="m0 0h17l7 3 1 1v42l-12-2h-18l-13 4-8 6-7 8-5 11-3 12-1 7-1 105h-45v-195h44l1 1v33l6-12 9-11 11-7 12-5z" fill="#466363"/>
    <path transform="translate(812,326)" d="m0 0h44l1 5v189l-14 1h-31l-1-1v-193z" fill="#466464"/>
    <path transform="translate(553,276)" d="m0 0h71l11 1 7 4 5 7 1 3v519l-5 8-5 4-5 2h-92l-9-6-4-7-1-5v-514l4-8 7-6 3-1zm-4 3-10 2-7 6-2 5v508l1 10 6 8 7 4h85l10-4 5-8 1-5 1-61v-100l-1-353-7-9-8-3z" fill="#3D9273"/>
    <path transform="translate(1372,356)" d="m0 0h14l12 3 12 7 6 5 8 11 5 15v7h-101l1-10 5-12 8-11 8-7 10-5z" fill="#FEF8F1"/>
    <path transform="translate(1754,659)" d="m0 0h23l11 4 11 7 9 10 5 11 3 14-1 1h-100l2-11 5-12 8-11 11-8 9-4z" fill="#FEF8F1"/>
    <path transform="translate(1208,731)" d="m0 0 4 1-2 19-3 10-6 9-8 9-10 7-11 4-5 1h-11l-11-2-8-5-5-5-4-7-1-4v-7l3-9 4-5 12-6 22-5 30-4z" fill="#FEF8F1"/>
    <path transform="translate(828,250)" d="m0 0h15l10 5 6 8 2 7v8l-3 8-7 8-8 4h-17l-8-4-7-8-2-5v-14l5-10 7-5z" fill="#466363"/>
    <path transform="translate(530,289)" d="m0 0 1 3v508l1 10 5 7 7 4h85l10-3 2-4 3-9 1-59 2-1v67l-4 6-5 4-5 2h-92l-9-6-4-7-1-5v-194l1-50v-269z" fill="#328B6D"/>
    <path transform="translate(583,152)" d="m0 0h2l-2 4-6 7-8 7-30 30-8 7-16 15-14 12-13 12-11 9-17 14-14 11-15 12-38 28-23 16-23 15-22 14-24 14-21 12-34 18-28 13-31 14-36 14-11 4h-6l2-3 14-5 39-15 20-9 23-10 15-8h3v-2l16-8 16-9 16-8 9-6 10-6 19-12 30-20 17-12 13-9 19-14 13-10 9-7 13-10 10-9 14-11 7-6h2v-2l10-8 7-7 8-7 14-12 7-7 5-3h2v-2l8-7 14-14h2l2-4 15-16z" fill="#308A6C"/>
    <path transform="translate(544,116)" d="m0 0 3 1-5 5-9 10-37 37-8 7-12 12-8 7-14 12-10 9-11 9-13 11-14 12-14 11-15 12-16 12-11 8-19 14-17 12-45 30-20 13-22 13-8 5-35 20-34 18-34 16-4 3h-2l-2 9 4 8 4 4h7l5-2h4l-1 3-9 3h-7l-7-6-4-10 1-7 5-5 62-31 23-13 28-16 28-17 26-17 31-21 19-13 13-10 14-10 26-20 10-8 14-11 14-12 11-9 14-12 10-9 8-7 13-12 8-7 12-11 23-23 8-7 10-10 7-8z" fill="#427469"/>
    <path transform="translate(161,566)" d="m0 0h1l1 35v164l1 43 2 5 4 4 8 4h86l5-3h3l2-5 2-3 1-5 1-209 2-1v218l-4 6-6 4-3 1h-94l-8-6-4-5-1-3z" fill="#288567"/>
    <path transform="translate(649,20)" d="m0 0 6 1 7 6 3 7-2 20-9 71h-2v7h-1v-16l6-48 2-9v-9l2-8v-8l-5-8-3-2-8 1-44 12-24 7-31 8-21 6-20 5-2 1 1 5 16 15 11 11 11 9 6 7v2l-5-2-11-11-8-7-16-15-7-6-3-4 1-5 4-3 36-10 62-17 44-12z" fill="#417B6B"/>
    <path transform="translate(358,424)" d="m0 0h50v1l-47 1-6 2-5 4-3 7v366l4 10 7 5 11 2v1h-14l-7-5-3-5-1-4v-373l3-6 6-5z" fill="#3B9072"/>
    <path transform="translate(185,518)" d="m0 0h79l9 3 7 8 1 3v279h-1l-1-216-1-2v-22l-1-38-3-5v-2l-9-3h-90l-6 3-5 6-2 9h-1v-11l3-5 5-4 5-2z" fill="#3F9274"/>
    <path transform="translate(544,116)" d="m0 0 3 1-5 5-9 10-37 37-8 7-12 12-8 7-14 12-10 9-11 9-13 11-14 12-14 11-15 12-16 12-11 8-7 4v-3l19-14 18-14 10-8 14-11 14-12 11-9 14-12 10-9 8-7 13-12 8-7 12-11 23-23 8-7 10-10 7-8z" fill="#417569"/>
    <path transform="translate(530,289)" d="m0 0 1 3v314l-1 4h-2v-317z" fill="#278566"/>
    <path transform="translate(294,379)" d="m0 0m-2 1 4 2-29 16-21 11-28 13-31 14-36 14-11 4h-6l2-3 14-5 39-15 20-9 23-10 15-8h3v-2l16-8 16-9z" fill="#328C6D"/>
    <path transform="translate(161,566)" d="m0 0h1l1 35v164l1 43 2 5 3 5 2 1v2h2v2l-5-2-7-8-1-3z" fill="#278667"/>
    <path transform="translate(193,389)" d="m0 0 2 1v2l-32 17-17 9-28 13-6 4h-2l-2 9 4 8 4 4h7l5-2h4l-1 3-9 3h-7l-7-6-4-10 1-7 5-5 62-31z" fill="#437168"/>
    <path transform="translate(545,50)" d="m0 0h5l-4 2-21 6-20 5-2 1 1 5 16 15 11 11 11 9 6 7v2l-5-2-11-11-8-7-16-15-7-6-3-4 1-5 4-3 28-8 12-1z" fill="#3E7969"/>
    <path transform="translate(553,276)" d="m0 0h71l11 1 7 4 4 5v2l-5-2-5-4-6-2h-81l-10 2-6 5-3 3-1-3 7-8 5-2z" fill="#3F9374"/>
    <path transform="translate(589,152)" d="m0 0 5 2 10 9 13 12 7 6v2h2v2l4 2 5 3 5 1 3-12 1-5 2-14 2-3v18l-2 12-3 6-3 2-7-1-10-9-11-10-8-7-12-11-3-3z" fill="#31886B"/>
    <path transform="translate(659,28)" d="m0 0 3 3v2l3 1-2 20-9 71h-2v7h-1v-16l6-48 2-9v-9l2-8v-8z" fill="#348D6E"/>
    <path transform="translate(646,745)" d="m0 0h1v67l-4 6-5 4-5 2h-92v-1l92-1 1-3 5-1 2-4 3-9 1-59z" fill="#378E6F"/>
    <path transform="translate(544,116)" d="m0 0 3 1-5 5-9 10-37 37-8 7-8 8-6 3h-3l13-12 8-7 25-25 8-7 10-10 7-8z" fill="#3F786A"/>
    <path transform="translate(461,787)" d="m0 0h3v25l-6 8-5 3h-79v-1l71-1 10-5 5-7z" fill="#278667"/>
    <path transform="translate(168,817)" d="m0 0 10 4h86l5-3 3 1-5 5h-94v-3h-2v-2l-3-1z" fill="#398F71"/>
    <path transform="translate(583,152)" d="m0 0h2l-2 4-6 7-8 7-30 30-2-1 15-16 7-7 7-8 9-10z" fill="#358D6F"/>
    <path transform="translate(182,434)" d="m0 0m-2 1h2v3l-39 15-9 1 2-3 14-5 26-10z" fill="#318B6C"/>
    <path transform="translate(161,765)" d="m0 0h2l1 43 2 5 3 5 2 1v2h2v2l-5-2-7-8-1-3v-14z" fill="#278667"/>
    <path transform="translate(545,50)" d="m0 0h5l-4 2-21 6-20 5-2 1 1 6-4-2-2-4 5-4 28-8 12-1z" fill="#36846B"/>
    <path transform="translate(463,474)" d="m0 0h1v31l-1 45h-1l-1-5v-59l1-11z" fill="#278667"/>
    <path transform="translate(241,361)" d="m0 0h2l-2 4-14 8-8 5-14 8-9 5-2-1 3-3 26-15z" fill="#447469"/>
    <path transform="translate(477,184)" d="m0 0 2 1-12 11-11 9-12 11-6 4 2-4 5-6 11-9 9-9 5-4z" fill="#42776A"/>
    <path transform="translate(411,424)" d="m0 0h43l8 7 2 3v15l-2-2-3-12-4-6-7-3-37-1z" fill="#2C8769"/>
    <path transform="translate(647,157)" d="m0 0h1v18l-2 12-2 5h-10l-4-4 10 3 3-12 1-5 2-14z" fill="#308A6B"/>
    <path transform="translate(218,418)" d="m0 0m-3 1 5 1-4 3-29 13-5 1 2-4 23-10z" fill="#358D6E"/>
    <path transform="translate(579,39)" d="m0 0 3 1-6 3h-4v2l-18 5-9 1-2 1h-8l4-2z" fill="#427C6C"/>
    <path transform="translate(358,424)" d="m0 0h50v1l-47 1-6 2-5 4-4 4-1-3 6-7z" fill="#298667"/>
    <path transform="translate(612,174)" d="m0 0 6 2 6 5v2h2v2l4 2 4 4h9l-1 3-7 1-8-6-15-14z" fill="#407869"/>
    <path transform="translate(649,20)" d="m0 0 6 1 7 6 2 6h-2l-2-4-7-5-8 1-6 1 2-4z" fill="#36866C"/>
    <path transform="translate(544,116)" d="m0 0 3 1-5 5-9 10-9 9-2-2 13-13 7-8z" fill="#388A6E"/>
    <path transform="translate(528,801)" d="m0 0 2 1v8h2l5 7 2 1v3h2v2l-5-2-5-4-3-6z" fill="#437068"/>
    <path transform="translate(545,50)" d="m0 0h5l-4 2-21 6-4-1 3-3 7-2 12-1z" fill="#308369"/>
    <path transform="translate(161,803)" d="m0 0h1v5h2l2 5 3 5 2 1v2h2v2l-5-2-7-8-1-8z" fill="#427368"/>
    <path transform="translate(214,377)" d="m0 0h2v3l-11 6-9 5-2-1 3-3z" fill="#437068"/>
    <path transform="translate(440,215)" d="m0 0m-2 1 2 1-4 6-12 9-2-2 14-12z" fill="#42776A"/>
    <path transform="translate(302,321)" d="m0 0 3 1-4 4-14 9-1-3z" fill="#42766A"/>
    <path transform="translate(361,279)" d="m0 0m-2 1 2 1-1 3-10 7-7 4v-3z" fill="#42776A"/>
    <path transform="translate(630,278)" d="m0 0h8l6 5 2 5-5-2-5-4-6-2z" fill="#37806A"/>
    <path transform="translate(531,96)" d="m0 0 4 2 12 11 1 4-5-2-3-3-3-5z" fill="#2E8569"/>
    <path transform="translate(110,451)" d="m0 0 6 5h7l5-2h4l-1 3-6 2-10-1-5-5z" fill="#2C8869"/>
    <path transform="translate(590,36)" d="m0 0 3 1 1 2-17 5h-5l4-2 5-2 1-2z" fill="#377E69"/>
    <path transform="translate(340,294)" d="m0 0h3l-1 3-14 10-1-2 5-5z" fill="#417368"/>
    <path transform="translate(490,170)" d="m0 0m-1 1m-1 1m-1 1m-1 1m-2 1h2l-1 4-5 5-6 3h-3z" fill="#427B6C"/>
    <path transform="translate(550,47)" d="m0 0h11l-4 2-12 2-2 1h-8l4-2z" fill="#417A6B"/>
    <path transform="translate(106,447)" d="m0 0h3l3 7 3 3 7 2v1h-7l-7-6-2-4z" fill="#46776B"/>
    <path transform="translate(605,32)" d="m0 0h6l-3 2h-3v2l-7 2h-6l2-3z" fill="#3F7769"/>
    <path transform="translate(650,134)" d="m0 0h1v15h-2v6h-1v-17z" fill="#2E8A6B"/>
    <path transform="translate(653,110)" d="m0 0h1v15h-2v7h-1v-16z" fill="#2E8A6B"/>
    <path transform="translate(218,418)" d="m0 0m-3 1 5 1-4 3-9 4h-2l2-4z" fill="#338C6E"/>
    <path transform="translate(169,521)" d="m0 0v3l-3 3-3 7-1 7h-1v-11l3-5z" fill="#3D7C6B"/>
    <path transform="translate(345,805)" d="m0 0 6 12 6 4v2l-5-2-5-5-2-3z" fill="#49706A"/>
    <path transform="translate(255,352)" d="m0 0 2 1v2l-14 8 1-4z" fill="#427569"/>
    <path transform="translate(108,435)" d="m0 0h2l-2 9v3h-3l-1-6 2-5z" fill="#3B7B69"/>
    <path transform="translate(477,184)" d="m0 0 2 1-12 11-3 1 2-4 4-5z" fill="#387566"/>
    <path transform="translate(119,427)" d="m0 0 3 1-4 3-6 4h-4v-2z" fill="#3F7568"/>
    <path transform="translate(622,29)" d="m0 0 4 1-17 5-4-1 3-2 4-2h7z" fill="#328269"/>
    <path transform="translate(448,208)" d="m0 0h2v3l-11 9v-3l6-7z" fill="#417368"/>
    <path transform="translate(659,28)" d="m0 0 3 3v2l3 1-1 12-2-4-2-10z" fill="#348D6E"/>
    <path transform="translate(641,816)" d="m0 0h2l-2 4-5 3h-5l2-1 1-3z" fill="#417067"/>
    <path transform="translate(241,361)" d="m0 0h2l-2 4-9 5-2-1 4-4z" fill="#467069"/>
    <path transform="translate(463,810)" d="m0 0 1 2-6 8-3 2-4-1 9-7z" fill="#487069"/>
    <path transform="translate(266,345)" d="m0 0h2l-2 4-8 5-2-1 4-4z" fill="#447168"/>
    <path transform="translate(536,279)" d="m0 0 2 1-3 5-5 5-1-3z" fill="#41796A"/>
    <path transform="translate(397,251)" d="m0 0m-2 1 2 1-2 4-7 5-2-1 5-6z" fill="#457169"/>
    <path transform="translate(631,190)" d="m0 0 3 1h9l-1 3-7 1-4-3z" fill="#49736B"/>
    <path transform="translate(527,94)" d="m0 0 4 1 7 8 2 4-7-6-6-5z" fill="#47776C"/>
    <path transform="translate(654,22)" d="m0 0 4 1 5 6 1 4h-2l-2-4-5-5z" fill="#437569"/>
    <path transform="translate(132,421)" d="m0 0 2 1-3 3-6 3h-4v-2z" fill="#43756A"/>
    <path transform="translate(313,314)" d="m0 0 1 3-8 5h-2l1-3z" fill="#437268"/>
    <path transform="translate(349,428)" d="m0 0h3l-2 4-4 4-1-3z" fill="#3A826C"/>
    <path transform="translate(421,231)" d="m0 0h2l-2 4-7 5 2-5z" fill="#417268"/>
</svg>
